<?xml version="1.0" encoding="UTF-8" standalone="no"?>
<!-- Created with Inkscape (http://www.inkscape.org/) -->

<svg
   width="1400"
   height="1400"
   viewBox="0 0 370.41667 370.41667"
   version="1.1"
   id="svg1"
   xmlns="http://www.w3.org/2000/svg"
   xmlns:svg="http://www.w3.org/2000/svg">
  <defs
     id="defs1" />
  <g
     id="g37"
     style="display:inline"
     transform="translate(-79.374996,-79.374999)">
    <rect
       style="display:inline;fill:#9c609c;fill-opacity:0;stroke:#000000;stroke-width:11.9062;stroke-dasharray:none;stroke-dashoffset:0"
       id="rect35"
       width="217.83844"
       height="352.47003"
       x="265.25812"
       y="-176.23502"
       ry="108.91922"
       transform="rotate(45)" />
    <rect
       style="fill:#9c609c;fill-opacity:0;stroke:#000000;stroke-width:11.9062;stroke-dasharray:none;stroke-dashoffset:0"
       id="rect36"
       width="217.83844"
       height="352.47003"
       x="-108.91922"
       y="-550.41235"
       ry="108.91922"
       transform="rotate(135)" />
    <rect
       style="display:inline;fill:#9c609c;fill-opacity:0;stroke:#000000;stroke-width:11.9062;stroke-dasharray:none;stroke-dashoffset:0"
       id="rect37"
       width="217.83844"
       height="352.47003"
       x="-108.91922"
       y="-550.41235"
       ry="108.91922"
       transform="rotate(90,-187.08867,77.494662)" />
    <path
       style="font-size:117.198px;font-family:Comfortaa;-inkscape-font-specification:Comfortaa;fill:none;stroke:#000000;stroke-width:22.4896"
       d="m 264.52473,310.34915 c 2.57836,0 4.57073,-1.99236 4.57073,-4.57072 v -78.63986 h 27.89312 c 2.46116,0 4.21913,-1.75797 4.21913,-4.10193 0,-2.46115 -1.75797,-4.21912 -4.21913,-4.21912 h -64.81049 c -2.46116,0 -4.21913,1.75797 -4.21913,4.21912 0,2.34396 1.75797,4.10193 4.21913,4.10193 h 27.77592 v 78.63986 c 0,2.57836 2.10957,4.57072 4.57072,4.57072 z"
       id="text37"
       aria-label="T" />
  </g>
</svg>
