<?xml version="1.0" encoding="UTF-8" standalone="no"?>
<!-- Created with Inkscape (http://www.inkscape.org/) -->

<svg
   width="1362.1702"
   height="1362.1702"
   viewBox="0 0 360.40753 360.40753"
   version="1.1"
   id="svg1"
   xmlns="http://www.w3.org/2000/svg"
   xmlns:svg="http://www.w3.org/2000/svg">
  <defs
     id="defs1" />
  <g
     id="layer1"
     style="display:none"
     transform="translate(-84.379568,-84.379564)">
    <g
       id="layer3">
      <g
         id="g1"
         transform="translate(-37.733515,82.134655)">
        <g
           id="g2">
          <path
             style="fill:none;fill-opacity:1;fill-rule:nonzero;stroke:#000000;stroke-width:18.5208;stroke-dasharray:none;stroke-opacity:1"
             d="m 481.42847,173.78815 c 0,0 -23.90579,6.43784 -23.90579,6.43784 3.36283,12.48727 4.09017,28.51294 -1.47061,44.70526 -4.53066,13.19274 -13.44593,26.60625 -26.72227,36.4173 -11.70549,8.65021 -26.95862,14.46232 -43.34782,14.94224 -15.03945,0.44039 -31.11323,-3.70645 -44.89489,-12.72894 -11.27551,-7.29899 -21.31072,-17.92237 -30.89205,-31.22292 -9.59075,-13.31627 -16.94062,-26.48268 -26.92226,-42.50191 -9.15518,-14.69363 -19.82802,-30.47252 -33.61039,-43.98491 -6.86571,-6.73331 -14.6072,-12.95362 -23.13465,-18.08643 -8.47865,-5.10344 -17.78385,-9.16036 -27.77974,-11.52871 -17.03314,-3.95293 -34.99387,-2.64337 -51.03543,3.42528 -16.04856,6.07157 -29.95785,16.81362 -39.83988,30.26084 -9.975767,13.57515 -15.743409,29.73719 -16.92428,45.93899 -1.203368,16.51282 2.346321,32.90179 9.56406,46.9789 8.18805,16.10281 21.02931,29.02688 35.54599,37.77796 15.14817,9.13117 32.12898,13.8404 48.54195,14.92924 17.10087,1.38737 33.89874,-1.13048 49.4979,-6.20645 16.15009,-5.25525 31.1502,-13.29004 44.26632,-22.85416 13.63264,-9.94106 25.49783,-21.52125 35.912,-33.71038 10.91792,-12.77872 20.42695,-26.44813 28.77356,-39.93448 16.76001,-27.08071 33.85138,-62.29979 46.61089,-86.05777 3.1018,-6.27836 6.03873,-11.824736 8.72003,-16.514691 -2.68286,4.692674 -5.89423,10.074681 -9.51651,16.078651 -13.37328,23.97008 -30.72152,58.07201 -48.24169,84.95199 -8.60871,13.20769 -18.34166,26.48063 -29.41646,38.78433 -10.56519,11.73754 -22.46296,22.71939 -35.96105,31.99959 -12.96475,8.91321 -27.60937,16.20926 -43.15616,20.76893 -15.02145,4.40559 -30.87211,6.24895 -46.70017,4.47615 -15.19083,-1.94593 -30.28576,-7.27477 -43.18146,-16.24084 -12.36773,-8.59963 -22.5808,-20.5449 -28.50098,-34.45195 -5.13255,-12.19447 -6.91732,-25.81285 -4.9405,-38.8595 1.94118,-12.80997 7.504,-24.99744 15.8501,-34.64992 8.27457,-9.56933 19.24882,-16.6097 31.07866,-20.03009 11.83601,-3.42181 24.49611,-3.22365 35.79189,0.37926 6.63789,2.06509 12.96425,5.31186 18.89653,9.45388 5.9793,4.17484 11.52108,9.23419 16.50986,14.82523 10.20607,11.43228 18.34791,25.07316 26.17001,39.62633 7.93183,14.75638 15.81026,30.95391 25.42728,46.21758 10.12566,16.06854 22.61159,31.7323 38.92249,43.75298 20.37493,14.90178 44.76767,22.62506 68.57411,23.05715 25.90793,0.47023 50.51629,-7.57506 70.11293,-20.86998 22.1891,-15.05374 37.44875,-36.16026 45.64223,-58.02435 9.97464,-26.61709 9.25366,-53.14191 3.59204,-74.16536 z"
             id="path11" />
        </g>
      </g>
      <path
         style="fill:#000000;stroke:#000000;stroke-width:0.264583;stroke-opacity:1"
         id="path1"
         d="m 327.7063,203.55653 -38.74184,-67.10284 -38.74184,-67.102827 77.48368,-2e-6 77.48367,-2e-6 -38.74183,67.102831 z"
         transform="matrix(0.63115804,-0.36439926,0.36439926,0.63115804,134.00127,185.29754)" />
    </g>
  </g>
  <g
     id="layer2"
     style="display:none"
     transform="translate(-84.379568,-84.379564)">
    <text
       xml:space="preserve"
       style="font-size:117.198px;fill:none;fill-opacity:1;stroke:#000000;stroke-width:12.8205;stroke-dasharray:none;stroke-dashoffset:0;stroke-opacity:1"
       x="226.20099"
       y="310.34915"
       id="text24"><tspan
         id="tspan24"
         style="font-style:normal;font-variant:normal;font-weight:normal;font-stretch:normal;font-family:Comfortaa;-inkscape-font-specification:Comfortaa;stroke-width:12.8205;stroke-dasharray:none"
         x="226.20099"
         y="310.34915">T</tspan></text>
    <rect
       style="fill:none;stroke:#000000;stroke-width:5.29167;stroke-dasharray:none"
       id="rect5-1"
       width="217.83844"
       height="352.47003"
       x="265.25812"
       y="-176.23502"
       ry="108.91922"
       transform="rotate(45)" />
    <rect
       style="fill:none;stroke:#000000;stroke-width:5.29167;stroke-dasharray:none"
       id="rect5-1-3-6"
       width="217.83844"
       height="352.47003"
       x="215.12787"
       y="-363.3237"
       ry="108.91922"
       transform="rotate(75)" />
    <rect
       style="fill:none;stroke:#000000;stroke-width:5.29167;stroke-dasharray:none"
       id="rect5-1-2"
       width="217.83844"
       height="352.47003"
       x="78.169449"
       y="-500.2821"
       ry="108.91922"
       transform="rotate(105)" />
    <rect
       style="fill:none;stroke:#000000;stroke-width:5.29167;stroke-dasharray:none"
       id="rect5-1-3-6-7"
       width="217.83844"
       height="352.47003"
       x="-108.91922"
       y="-550.41235"
       ry="108.91922"
       transform="rotate(135)" />
  </g>
  <g
     id="g8"
     style="display:none"
     transform="translate(-84.379568,-84.379564)">
    <text
       xml:space="preserve"
       style="font-size:117.198px;fill:none;fill-opacity:1;stroke:#000000;stroke-width:12.8205;stroke-dasharray:none;stroke-dashoffset:0;stroke-opacity:1"
       x="226.20099"
       y="310.34915"
       id="text5"><tspan
         id="tspan5"
         style="font-style:normal;font-variant:normal;font-weight:normal;font-stretch:normal;font-family:Comfortaa;-inkscape-font-specification:Comfortaa;stroke-width:12.8205;stroke-dasharray:none"
         x="226.20099"
         y="310.34915">T</tspan></text>
    <rect
       style="fill:none;stroke:#000000;stroke-width:9.26042;stroke-dasharray:none"
       id="rect5"
       width="217.83844"
       height="352.47003"
       x="265.25812"
       y="-176.23502"
       ry="108.91922"
       transform="rotate(45)" />
    <rect
       style="fill:none;stroke:#000000;stroke-width:9.26042;stroke-dasharray:none"
       id="rect8"
       width="217.83844"
       height="352.47003"
       x="-108.91922"
       y="-550.41235"
       ry="108.91922"
       transform="rotate(135)" />
  </g>
  <g
     id="g20"
     style="display:none"
     transform="translate(-84.379568,-84.379564)">
    <text
       xml:space="preserve"
       style="font-size:117.198px;display:inline;fill:none;fill-opacity:1;stroke:#000000;stroke-width:23.8125;stroke-dasharray:none;stroke-dashoffset:0;stroke-opacity:1"
       x="226.20099"
       y="310.34915"
       id="text19"><tspan
         id="tspan19"
         style="font-style:normal;font-variant:normal;font-weight:normal;font-stretch:normal;font-family:Comfortaa;-inkscape-font-specification:Comfortaa;stroke-width:23.8125;stroke-dasharray:none"
         x="226.20099"
         y="310.34915">T</tspan></text>
    <rect
       style="display:inline;fill:none;stroke:#000000;stroke-width:7.9375;stroke-dasharray:none;stroke-dashoffset:0"
       id="rect19"
       width="217.83844"
       height="352.47003"
       x="265.25812"
       y="-176.23502"
       ry="108.91922"
       transform="rotate(45)" />
    <rect
       style="fill:none;stroke:#000000;stroke-width:7.9375;stroke-dasharray:none;stroke-dashoffset:0"
       id="rect20"
       width="217.83844"
       height="352.47003"
       x="-108.91922"
       y="-550.41235"
       ry="108.91922"
       transform="rotate(135)" />
    <g
       id="g22"
       transform="rotate(-45,264.58333,264.58333)">
      <rect
         style="fill:none;stroke:#000000;stroke-width:7.9375;stroke-dasharray:none;stroke-dashoffset:0"
         id="rect21"
         width="217.83844"
         height="352.47003"
         x="265.25812"
         y="-176.23502"
         ry="108.91922"
         transform="rotate(45)" />
      <rect
         style="fill:none;stroke:#000000;stroke-width:7.9375;stroke-dasharray:none;stroke-dashoffset:0"
         id="rect22"
         width="217.83844"
         height="352.47003"
         x="-108.91922"
         y="-550.41235"
         ry="108.91922"
         transform="rotate(135)" />
    </g>
  </g>
  <g
     id="g27"
     style="display:inline"
     transform="translate(-84.379568,-84.379564)">
    <rect
       style="display:inline;fill:#ce3737;fill-opacity:0.342075;stroke:#000000;stroke-width:7.9375;stroke-dasharray:none;stroke-dashoffset:0"
       id="rect23"
       width="217.83844"
       height="352.47003"
       x="265.25812"
       y="-176.23502"
       ry="108.91922"
       transform="rotate(45)" />
    <rect
       style="fill:#37b2ce;fill-opacity:0.342075;stroke:#000000;stroke-width:7.9375;stroke-dasharray:none;stroke-dashoffset:0"
       id="rect24"
       width="217.83844"
       height="352.47003"
       x="-108.91922"
       y="-550.41235"
       ry="108.91922"
       transform="rotate(135)" />
    <rect
       style="display:inline;fill:#ce37ce;fill-opacity:0.342075;stroke:#000000;stroke-width:6.61458;stroke-dasharray:none;stroke-dashoffset:0"
       id="rect26"
       width="217.83844"
       height="352.47003"
       x="-108.91922"
       y="-550.41235"
       ry="108.91922"
       transform="rotate(90,-187.08867,77.494662)" />
    <text
       xml:space="preserve"
       style="font-size:117.198px;display:inline;fill:none;fill-opacity:1;stroke:#000000;stroke-width:22.4896;stroke-dasharray:none;stroke-dashoffset:0;stroke-opacity:1"
       x="226.20099"
       y="310.34915"
       id="text22"><tspan
         id="tspan22"
         style="font-style:normal;font-variant:normal;font-weight:normal;font-stretch:normal;font-family:Comfortaa;-inkscape-font-specification:Comfortaa;stroke-width:22.4896;stroke-dasharray:none"
         x="226.20099"
         y="310.34915">T</tspan></text>
  </g>
  <g
     id="g37"
     style="display:inline"
     transform="translate(-84.379568,-84.379564)">
    <rect
       style="display:inline;fill:#9c609c;fill-opacity:0;stroke:#000000;stroke-width:7.9375;stroke-dasharray:none;stroke-dashoffset:0"
       id="rect35"
       width="217.83844"
       height="352.47003"
       x="265.25812"
       y="-176.23502"
       ry="108.91922"
       transform="rotate(45)" />
    <rect
       style="fill:#9c609c;fill-opacity:0;stroke:#000000;stroke-width:7.9375;stroke-dasharray:none;stroke-dashoffset:0"
       id="rect36"
       width="217.83844"
       height="352.47003"
       x="-108.91922"
       y="-550.41235"
       ry="108.91922"
       transform="rotate(135)" />
    <rect
       style="display:inline;fill:#9c609c;fill-opacity:0;stroke:#000000;stroke-width:6.61458;stroke-dasharray:none;stroke-dashoffset:0"
       id="rect37"
       width="217.83844"
       height="352.47003"
       x="-108.91922"
       y="-550.41235"
       ry="108.91922"
       transform="rotate(90,-187.08867,77.494662)" />
    <text
       xml:space="preserve"
       style="font-size:117.198px;display:inline;fill:none;fill-opacity:1;stroke:#000000;stroke-width:22.4896;stroke-dasharray:none;stroke-dashoffset:0;stroke-opacity:1"
       x="226.20099"
       y="310.34915"
       id="text37"><tspan
         id="tspan37"
         style="font-style:normal;font-variant:normal;font-weight:normal;font-stretch:normal;font-family:Comfortaa;-inkscape-font-specification:Comfortaa;stroke-width:22.4896;stroke-dasharray:none"
         x="226.20099"
         y="310.34915">T</tspan></text>
  </g>
</svg>
